<?xml version="1.0" encoding="utf-8"?>
<!-- Generator: Adobe Illustrator 25.4.1, SVG Export Plug-In . SVG Version: 6.00 Build 0)  -->
<svg version="1.1" id="Layer_1" xmlns="http://www.w3.org/2000/svg" xmlns:xlink="http://www.w3.org/1999/xlink" x="0px" y="0px"
	 viewBox="0 0 14 20" style="enable-background:new 0 0 14 20;" xml:space="preserve">
<style type="text/css">
	.st0{fill:#FFFFFF;}
</style>
<path class="st0" d="M7,5.57c0,0-0.05-3.2,3.26-3.64C10.26,1.93,10.16,5.5,7,5.57z"/>
<path class="st0" d="M1.47,7.2c0,0-2.49,2.48-0.14,7.62c0,0,0.91,2.08,2.14,2.95c0.52,0.36,1.18,0.49,1.77,0.27
	c0.19-0.07,0.67-0.25,0.93-0.39c0,0,1.39-0.5,2.23,0c0,0,1.55,0.93,2.76,0c0.07,0.09,1.96-1.66,2.37-3.9c0,0-0.94-0.19-1.58-1.42
	c-0.62-1.18-0.66-2.64,0.04-3.78c0.26-0.43,0.64-0.83,1.18-1.09c0,0-1.96-2.64-4.31-1.52c0,0-1.6,1.15-3.16,0.14
	C5.2,5.77,4.5,5.65,3.92,5.77C3.22,5.9,2.32,6.29,1.47,7.2z"/>
</svg>
